ply
format ascii 1.0
comment Created by Blender 2.65 (sub 0) - www.blender.org, source file: 'untitled.blend'
element vertex 144
property float x
property float y
property float z
element face 284
property list uchar uint vertex_indices
end_header
0.009268 -0.003462 0.000000
0.010442 -0.003387 0.000000
0.011277 -0.003427 0.000000
0.025412 -0.003427 0.000000
0.026247 -0.003387 0.000000
0.027421 -0.003462 0.000000
0.012086 -0.003546 0.000000
0.024603 -0.003546 0.000000
0.008149 -0.003681 0.000000
0.028540 -0.003681 0.000000
0.012868 -0.003739 0.000000
0.023821 -0.003739 0.000000
0.007095 -0.004035 0.000000
0.029594 -0.004035 0.000000
0.013620 -0.004003 0.000000
0.023069 -0.004003 0.000000
0.014341 -0.004334 0.000000
0.022348 -0.004334 0.000000
0.006115 -0.004516 0.000000
0.030574 -0.004516 0.000000
0.015028 -0.004727 0.000000
0.021661 -0.004727 0.000000
0.005217 -0.005114 0.000000
0.031472 -0.005114 0.000000
0.015681 -0.005179 0.000000
0.021008 -0.005179 0.000000
0.004410 -0.005821 0.000000
0.032279 -0.005821 0.000000
0.016296 -0.005686 0.000000
0.020393 -0.005686 0.000000
0.016872 -0.006244 0.000000
0.019817 -0.006244 0.000000
0.003703 -0.006628 0.000000
0.032986 -0.006628 0.000000
0.017406 -0.006849 0.000000
0.019283 -0.006849 0.000000
0.003104 -0.007526 0.000000
0.033584 -0.007526 0.000000
0.017898 -0.007497 0.000000
0.018791 -0.007497 0.000000
0.018344 -0.008184 0.000000
0.002624 -0.008506 0.000000
0.034065 -0.008506 0.000000
0.002270 -0.009560 0.000000
0.034419 -0.009560 0.000000
0.002051 -0.010679 0.000000
0.034638 -0.010679 0.000000
0.001976 -0.011853 0.000000
0.034713 -0.011853 0.000000
0.002082 -0.014027 0.000000
0.034607 -0.014027 0.000000
0.002404 -0.015931 0.000000
0.034285 -0.015931 0.000000
0.002946 -0.017626 0.000000
0.033743 -0.017626 0.000000
0.003711 -0.019170 0.000000
0.032978 -0.019170 0.000000
0.004703 -0.020625 0.000000
0.031986 -0.020625 0.000000
0.005927 -0.022049 0.000000
0.030762 -0.022049 0.000000
0.007385 -0.023502 0.000000
0.029303 -0.023502 0.000000
0.009083 -0.025045 0.000000
0.027606 -0.025045 0.000000
0.011024 -0.026736 0.000000
0.025665 -0.026736 0.000000
0.013212 -0.028636 0.000000
0.023477 -0.028636 0.000000
0.015651 -0.030805 0.000000
0.021038 -0.030805 0.000000
0.018344 -0.033302 0.000000
0.009866 -0.003341 0.005019
0.011875 -0.003307 0.005019
0.011040 -0.003266 0.005019
0.026010 -0.003307 0.005019
0.028019 -0.003341 0.005019
0.026845 -0.003266 0.005019
0.012684 -0.003426 0.005019
0.025201 -0.003426 0.005019
0.008747 -0.003560 0.005019
0.029138 -0.003560 0.005019
0.013466 -0.003619 0.005019
0.024420 -0.003619 0.005019
0.007693 -0.003915 0.005019
0.030192 -0.003915 0.005019
0.014218 -0.003883 0.005019
0.023667 -0.003883 0.005019
0.014939 -0.004214 0.005019
0.022946 -0.004214 0.005019
0.006713 -0.004395 0.005019
0.031172 -0.004395 0.005019
0.015627 -0.004607 0.005019
0.022259 -0.004607 0.005019
0.005815 -0.004993 0.005019
0.032070 -0.004993 0.005019
0.016279 -0.005059 0.005019
0.021606 -0.005059 0.005019
0.005008 -0.005700 0.005019
0.032877 -0.005700 0.005019
0.016894 -0.005566 0.005019
0.020991 -0.005566 0.005019
0.017470 -0.006124 0.005019
0.020416 -0.006124 0.005019
0.004301 -0.006507 0.005019
0.033584 -0.006507 0.005019
0.018005 -0.006729 0.005019
0.019881 -0.006729 0.005019
0.003703 -0.007406 0.005019
0.034183 -0.007406 0.005019
0.018496 -0.007377 0.005019
0.019389 -0.007377 0.005019
0.018943 -0.008064 0.005019
0.003222 -0.008386 0.005019
0.034663 -0.008386 0.005019
0.002868 -0.009440 0.005019
0.035018 -0.009440 0.005019
0.002649 -0.010559 0.005019
0.035237 -0.010559 0.005019
0.002574 -0.011733 0.005019
0.035312 -0.011733 0.005019
0.002680 -0.013907 0.005019
0.035205 -0.013907 0.005019
0.003002 -0.015811 0.005019
0.034883 -0.015811 0.005019
0.003544 -0.017505 0.005019
0.034341 -0.017505 0.005019
0.004309 -0.019050 0.005019
0.033576 -0.019050 0.005019
0.005301 -0.020504 0.005019
0.032584 -0.020504 0.005019
0.006525 -0.021928 0.005019
0.031360 -0.021928 0.005019
0.007984 -0.023382 0.005019
0.029902 -0.023382 0.005019
0.009682 -0.024924 0.005019
0.028204 -0.024924 0.005019
0.011623 -0.026616 0.005019
0.026263 -0.026616 0.005019
0.013810 -0.028516 0.005019
0.024075 -0.028516 0.005019
0.016249 -0.030685 0.005019
0.021636 -0.030685 0.005019
0.018943 -0.033182 0.005019
3 0 1 2
3 3 4 5
3 0 2 6
3 7 3 5
3 8 0 6
3 7 5 9
3 8 6 10
3 11 7 9
3 12 8 10
3 11 9 13
3 12 10 14
3 15 11 13
3 12 14 16
3 17 15 13
3 18 12 16
3 17 13 19
3 18 16 20
3 21 17 19
3 22 18 20
3 21 19 23
3 22 20 24
3 25 21 23
3 26 22 24
3 25 23 27
3 26 24 28
3 29 25 27
3 26 28 30
3 31 29 27
3 32 26 30
3 31 27 33
3 32 30 34
3 35 31 33
3 36 32 34
3 35 33 37
3 36 34 38
3 39 35 37
3 38 40 36
3 40 39 37
3 36 40 41
3 40 37 42
3 41 40 42
3 43 41 42
3 43 42 44
3 45 43 44
3 45 44 46
3 47 45 46
3 47 46 48
3 49 47 48
3 49 48 50
3 51 49 50
3 51 50 52
3 53 51 52
3 53 52 54
3 55 53 54
3 55 54 56
3 57 55 56
3 57 56 58
3 59 57 58
3 59 58 60
3 61 59 60
3 61 60 62
3 63 61 62
3 63 62 64
3 65 63 64
3 65 64 66
3 67 65 66
3 67 66 68
3 69 67 68
3 69 68 70
3 71 69 70
3 72 73 74
3 75 76 77
3 72 78 73
3 79 76 75
3 80 78 72
3 79 81 76
3 80 82 78
3 83 81 79
3 84 82 80
3 83 85 81
3 84 86 82
3 87 85 83
3 84 88 86
3 89 85 87
3 90 88 84
3 89 91 85
3 90 92 88
3 93 91 89
3 94 92 90
3 93 95 91
3 94 96 92
3 97 95 93
3 98 96 94
3 97 99 95
3 98 100 96
3 101 99 97
3 98 102 100
3 103 99 101
3 104 102 98
3 103 105 99
3 104 106 102
3 107 105 103
3 108 106 104
3 107 109 105
3 108 110 106
3 111 109 107
3 108 112 110
3 112 109 111
3 113 112 108
3 112 114 109
3 113 114 112
3 115 114 113
3 115 116 114
3 117 116 115
3 117 118 116
3 119 118 117
3 119 120 118
3 121 120 119
3 121 122 120
3 123 122 121
3 123 124 122
3 125 124 123
3 125 126 124
3 127 126 125
3 127 128 126
3 129 128 127
3 129 130 128
3 131 130 129
3 131 132 130
3 133 132 131
3 133 134 132
3 135 134 133
3 135 136 134
3 137 136 135
3 137 138 136
3 139 138 137
3 139 140 138
3 141 140 139
3 141 142 140
3 143 142 141
3 22 26 98
3 4 3 75
3 24 20 92
3 61 63 133
3 39 40 112
3 26 32 104
3 38 34 106
3 8 12 84
3 18 22 94
3 51 53 123
3 69 71 141
3 60 58 132
3 57 59 129
3 54 52 126
3 34 30 102
3 1 0 72
3 11 15 87
3 62 60 134
3 46 44 118
3 45 47 119
3 56 54 128
3 30 28 100
3 58 56 130
3 49 51 123
3 29 31 103
3 25 29 101
3 53 55 125
3 42 37 109
3 7 11 83
3 71 70 143
3 15 17 89
3 14 10 82
3 44 42 114
3 65 67 137
3 68 66 140
3 12 18 90
3 43 45 117
3 33 27 99
3 16 14 86
3 37 33 105
3 31 35 107
3 17 21 93
3 35 39 111
3 67 69 139
3 27 23 95
3 19 13 85
3 55 57 127
3 3 7 79
3 63 65 135
3 2 1 74
3 23 19 91
3 10 6 78
3 36 41 113
3 47 49 121
3 50 48 122
3 5 4 77
3 28 24 96
3 21 25 97
3 40 38 110
3 59 61 131
3 48 46 120
3 64 62 136
3 20 16 88
3 32 36 108
3 52 50 124
3 13 9 81
3 0 8 80
3 70 68 142
3 66 64 138
3 41 43 115
3 9 5 76
3 6 2 73
3 94 22 98
3 77 4 75
3 96 24 92
3 63 135 133
3 111 39 112
3 98 26 104
3 110 38 106
3 80 8 84
3 90 18 94
3 53 125 123
3 71 143 141
3 58 130 132
3 59 131 129
3 52 124 126
3 106 34 102
3 74 1 72
3 83 11 87
3 60 132 134
3 44 116 118
3 117 45 119
3 54 126 128
3 102 30 100
3 56 128 130
3 121 49 123
3 101 29 103
3 97 25 101
3 55 127 125
3 114 42 109
3 79 7 83
3 70 142 143
3 87 15 89
3 86 14 82
3 116 44 114
3 67 139 137
3 66 138 140
3 84 12 90
3 115 43 117
3 105 33 99
3 88 16 86
3 109 37 105
3 103 31 107
3 89 17 93
3 107 35 111
3 69 141 139
3 99 27 95
3 91 19 85
3 57 129 127
3 75 3 79
3 65 137 135
3 73 2 74
3 95 23 91
3 82 10 78
3 108 36 113
3 119 47 121
3 48 120 122
3 76 5 77
3 100 28 96
3 93 21 97
3 112 40 110
3 61 133 131
3 46 118 120
3 62 134 136
3 92 20 88
3 104 32 108
3 50 122 124
3 85 13 81
3 72 0 80
3 68 140 142
3 64 136 138
3 113 41 115
3 81 9 76
3 78 6 73
