ply
format ascii 1.0
comment Created by Blender 2.65 (sub 0) - www.blender.org, source file: 'untitled.blend'
element vertex 466
property float x
property float y
property float z
property float nx
property float ny
property float nz
element face 284
property list uchar uint vertex_indices
end_header
0.009268 -0.003462 0.000000 -0.000000 0.000000 -1.000000
0.010442 -0.003387 0.000000 -0.000000 0.000000 -1.000000
0.011277 -0.003427 0.000000 -0.000000 0.000000 -1.000000
0.025412 -0.003427 0.000000 -0.000000 0.000000 -1.000000
0.026247 -0.003387 0.000000 -0.000000 0.000000 -1.000000
0.027421 -0.003462 0.000000 -0.000000 0.000000 -1.000000
0.012086 -0.003546 0.000000 -0.000000 0.000000 -1.000000
0.024603 -0.003546 0.000000 -0.000000 0.000000 -1.000000
0.008149 -0.003681 0.000000 -0.000000 0.000000 -1.000000
0.028540 -0.003681 0.000000 -0.000000 0.000000 -1.000000
0.012868 -0.003739 0.000000 -0.000000 0.000000 -1.000000
0.023821 -0.003739 0.000000 -0.000000 0.000000 -1.000000
0.007095 -0.004035 0.000000 -0.000000 0.000000 -1.000000
0.029594 -0.004035 0.000000 -0.000000 0.000000 -1.000000
0.013620 -0.004003 0.000000 -0.000000 0.000000 -1.000000
0.023069 -0.004003 0.000000 -0.000000 0.000000 -1.000000
0.014341 -0.004334 0.000000 -0.000000 0.000000 -1.000000
0.022348 -0.004334 0.000000 -0.000000 0.000000 -1.000000
0.006115 -0.004516 0.000000 -0.000000 0.000000 -1.000000
0.030574 -0.004516 0.000000 -0.000000 0.000000 -1.000000
0.015028 -0.004727 0.000000 -0.000000 0.000000 -1.000000
0.021661 -0.004727 0.000000 -0.000000 0.000000 -1.000000
0.005217 -0.005114 0.000000 -0.000000 0.000000 -1.000000
0.031472 -0.005114 0.000000 -0.000000 0.000000 -1.000000
0.015681 -0.005179 0.000000 -0.000000 0.000000 -1.000000
0.021008 -0.005179 0.000000 -0.000000 0.000000 -1.000000
0.004410 -0.005821 0.000000 -0.000000 0.000000 -1.000000
0.032279 -0.005821 0.000000 -0.000000 0.000000 -1.000000
0.016296 -0.005686 0.000000 -0.000000 0.000000 -1.000000
0.020393 -0.005686 0.000000 -0.000000 0.000000 -1.000000
0.016872 -0.006244 0.000000 -0.000000 0.000000 -1.000000
0.019817 -0.006244 0.000000 -0.000000 0.000000 -1.000000
0.003703 -0.006628 0.000000 -0.000000 0.000000 -1.000000
0.032986 -0.006628 0.000000 -0.000000 0.000000 -1.000000
0.017406 -0.006849 0.000000 -0.000000 0.000000 -1.000000
0.019283 -0.006849 0.000000 -0.000000 0.000000 -1.000000
0.003104 -0.007526 0.000000 -0.000000 0.000000 -1.000000
0.033584 -0.007526 0.000000 -0.000000 0.000000 -1.000000
0.017898 -0.007497 0.000000 -0.000000 0.000000 -1.000000
0.018791 -0.007497 0.000000 -0.000000 0.000000 -1.000000
0.018344 -0.008184 0.000000 0.000000 0.000000 -1.000000
0.002624 -0.008506 0.000000 0.000000 0.000000 -1.000000
0.034065 -0.008506 0.000000 -0.000000 0.000000 -1.000000
0.002270 -0.009560 0.000000 -0.000000 0.000000 -1.000000
0.034419 -0.009560 0.000000 -0.000000 0.000000 -1.000000
0.002051 -0.010679 0.000000 -0.000000 0.000000 -1.000000
0.034638 -0.010679 0.000000 -0.000000 0.000000 -1.000000
0.001976 -0.011853 0.000000 -0.000000 0.000000 -1.000000
0.034713 -0.011853 0.000000 -0.000000 0.000000 -1.000000
0.002082 -0.014027 0.000000 -0.000000 -0.000000 -1.000000
0.034607 -0.014027 0.000000 -0.000000 0.000000 -1.000000
0.002404 -0.015931 0.000000 -0.000000 -0.000000 -1.000000
0.034285 -0.015931 0.000000 -0.000000 0.000000 -1.000000
0.002946 -0.017626 0.000000 -0.000000 -0.000000 -1.000000
0.033743 -0.017626 0.000000 -0.000000 0.000000 -1.000000
0.003711 -0.019170 0.000000 -0.000000 -0.000000 -1.000000
0.032978 -0.019170 0.000000 -0.000000 0.000000 -1.000000
0.004703 -0.020625 0.000000 -0.000000 -0.000000 -1.000000
0.031986 -0.020625 0.000000 -0.000000 0.000000 -1.000000
0.005927 -0.022049 0.000000 -0.000000 -0.000000 -1.000000
0.030762 -0.022049 0.000000 -0.000000 0.000000 -1.000000
0.007385 -0.023502 0.000000 -0.000000 -0.000000 -1.000000
0.029303 -0.023502 0.000000 -0.000000 0.000000 -1.000000
0.009083 -0.025045 0.000000 -0.000000 -0.000000 -1.000000
0.027606 -0.025045 0.000000 -0.000000 0.000000 -1.000000
0.011024 -0.026736 0.000000 -0.000000 -0.000000 -1.000000
0.025665 -0.026736 0.000000 -0.000000 0.000000 -1.000000
0.013212 -0.028636 0.000000 -0.000000 -0.000000 -1.000000
0.023477 -0.028636 0.000000 -0.000000 0.000000 -1.000000
0.015651 -0.030805 0.000000 -0.000000 -0.000000 -1.000000
0.021038 -0.030805 0.000000 -0.000000 0.000000 -1.000000
0.018344 -0.033302 0.000000 -0.000000 -0.000000 -1.000000
0.009866 -0.003341 0.005019 0.000000 0.000000 1.000000
0.011875 -0.003307 0.005019 0.000000 0.000000 1.000000
0.011040 -0.003266 0.005019 0.000000 0.000000 1.000000
0.026010 -0.003307 0.005019 0.000000 0.000000 1.000000
0.028019 -0.003341 0.005019 0.000000 0.000000 1.000000
0.026845 -0.003266 0.005019 0.000000 0.000000 1.000000
0.012684 -0.003426 0.005019 0.000000 0.000000 1.000000
0.025201 -0.003426 0.005019 0.000000 0.000000 1.000000
0.008747 -0.003560 0.005019 0.000000 0.000000 1.000000
0.029138 -0.003560 0.005019 0.000000 0.000000 1.000000
0.013466 -0.003619 0.005019 0.000000 0.000000 1.000000
0.024420 -0.003619 0.005019 0.000000 0.000000 1.000000
0.007693 -0.003915 0.005019 0.000000 0.000000 1.000000
0.030192 -0.003915 0.005019 0.000000 0.000000 1.000000
0.014218 -0.003883 0.005019 0.000000 0.000000 1.000000
0.023667 -0.003883 0.005019 0.000000 0.000000 1.000000
0.014939 -0.004214 0.005019 0.000000 0.000000 1.000000
0.022946 -0.004214 0.005019 0.000000 0.000000 1.000000
0.006713 -0.004395 0.005019 0.000000 0.000000 1.000000
0.031172 -0.004395 0.005019 0.000000 0.000000 1.000000
0.015627 -0.004607 0.005019 0.000000 0.000000 1.000000
0.022259 -0.004607 0.005019 0.000000 0.000000 1.000000
0.005815 -0.004993 0.005019 0.000000 0.000000 1.000000
0.032070 -0.004993 0.005019 0.000000 0.000000 1.000000
0.016279 -0.005059 0.005019 0.000000 0.000000 1.000000
0.021606 -0.005059 0.005019 0.000000 0.000000 1.000000
0.005008 -0.005700 0.005019 0.000000 0.000000 1.000000
0.032877 -0.005700 0.005019 0.000000 0.000000 1.000000
0.016894 -0.005566 0.005019 0.000000 0.000000 1.000000
0.020991 -0.005566 0.005019 0.000000 0.000000 1.000000
0.017470 -0.006124 0.005019 0.000000 0.000000 1.000000
0.020416 -0.006124 0.005019 0.000000 0.000000 1.000000
0.004301 -0.006507 0.005019 0.000000 0.000000 1.000000
0.033584 -0.006507 0.005019 0.000000 0.000000 1.000000
0.018005 -0.006729 0.005019 0.000000 0.000000 1.000000
0.019881 -0.006729 0.005019 0.000000 0.000000 1.000000
0.003703 -0.007406 0.005019 0.000000 0.000000 1.000000
0.034183 -0.007406 0.005019 0.000000 0.000000 1.000000
0.018496 -0.007377 0.005019 0.000000 0.000000 1.000000
0.019389 -0.007377 0.005019 0.000000 0.000000 1.000000
0.018943 -0.008064 0.005019 0.000000 0.000000 1.000000
0.003222 -0.008386 0.005019 0.000000 0.000000 1.000000
0.034663 -0.008386 0.005019 0.000000 0.000000 1.000000
0.002868 -0.009440 0.005019 0.000000 0.000000 1.000000
0.035018 -0.009440 0.005019 0.000000 0.000000 1.000000
0.002649 -0.010559 0.005019 0.000000 0.000000 1.000000
0.035237 -0.010559 0.005019 0.000000 0.000000 1.000000
0.002574 -0.011733 0.005019 0.000000 0.000000 1.000000
0.035312 -0.011733 0.005019 0.000000 0.000000 1.000000
0.002680 -0.013907 0.005019 -0.000000 0.000000 1.000000
0.035205 -0.013907 0.005019 0.000000 0.000000 1.000000
0.003002 -0.015811 0.005019 0.000000 0.000000 1.000000
0.034883 -0.015811 0.005019 0.000000 0.000000 1.000000
0.003544 -0.017505 0.005019 -0.000000 0.000000 1.000000
0.034341 -0.017505 0.005019 0.000000 0.000000 1.000000
0.004309 -0.019050 0.005019 -0.000000 0.000000 1.000000
0.033576 -0.019050 0.005019 0.000000 0.000000 1.000000
0.005301 -0.020504 0.005019 -0.000000 0.000000 1.000000
0.032584 -0.020504 0.005019 0.000000 0.000000 1.000000
0.006525 -0.021928 0.005019 0.000000 0.000000 1.000000
0.031360 -0.021928 0.005019 0.000000 0.000000 1.000000
0.007984 -0.023382 0.005019 0.000000 0.000000 1.000000
0.029902 -0.023382 0.005019 0.000000 0.000000 1.000000
0.009682 -0.024924 0.005019 0.000000 0.000000 1.000000
0.028204 -0.024924 0.005019 0.000000 0.000000 1.000000
0.011623 -0.026616 0.005019 0.000000 0.000000 1.000000
0.026263 -0.026616 0.005019 0.000000 0.000000 1.000000
0.013810 -0.028516 0.005019 0.000000 0.000000 1.000000
0.024075 -0.028516 0.005019 0.000000 0.000000 1.000000
0.016249 -0.030685 0.005019 0.000000 0.000000 1.000000
0.021636 -0.030685 0.005019 0.000000 0.000000 1.000000
0.018943 -0.033182 0.005019 0.000000 0.000000 1.000000
0.005217 -0.005114 0.000000 -0.657786 0.750779 0.060393
0.004410 -0.005821 0.000000 -0.657786 0.750779 0.060393
0.005008 -0.005700 0.005019 -0.657786 0.750779 0.060393
0.026247 -0.003387 0.000000 -0.048467 0.998659 -0.018171
0.025412 -0.003427 0.000000 -0.048467 0.998659 -0.018171
0.026010 -0.003307 0.005019 -0.048467 0.998659 -0.018171
0.015681 -0.005179 0.000000 0.567444 0.818775 -0.087263
0.015028 -0.004727 0.000000 0.567444 0.818775 -0.087263
0.015627 -0.004607 0.005019 0.567444 0.818775 -0.087263
0.007385 -0.023502 0.000000 -0.669243 -0.736629 0.097425
0.009083 -0.025045 0.000000 -0.669243 -0.736629 0.097425
0.007984 -0.023382 0.005019 -0.669243 -0.736629 0.097425
0.018791 -0.007497 0.000000 -0.835407 0.542774 0.086550
0.018344 -0.008184 0.000000 -0.835407 0.542774 0.086550
0.018943 -0.008064 0.005019 -0.835407 0.542774 0.086550
0.004410 -0.005821 0.000000 -0.750110 0.657200 0.073640
0.003703 -0.006628 0.000000 -0.750110 0.657200 0.073640
0.004301 -0.006507 0.005019 -0.750110 0.657200 0.073640
0.017898 -0.007497 0.000000 0.791982 0.600773 -0.108796
0.017406 -0.006849 0.000000 0.791982 0.600773 -0.108796
0.018005 -0.006729 0.005019 0.791982 0.600773 -0.108796
0.008149 -0.003681 0.000000 -0.318569 0.947777 0.015241
0.007095 -0.004035 0.000000 -0.318569 0.947777 0.015241
0.007693 -0.003915 0.005019 -0.318569 0.947777 0.015241
0.006115 -0.004516 0.000000 -0.553797 0.831376 0.046067
0.005217 -0.005114 0.000000 -0.553797 0.831376 0.046067
0.005815 -0.004993 0.005019 -0.553797 0.831376 0.046067
0.002404 -0.015931 0.000000 -0.945653 -0.302244 0.119952
0.002946 -0.017626 0.000000 -0.945653 -0.302244 0.119952
0.003002 -0.015811 0.005019 -0.945653 -0.302244 0.119952
0.015651 -0.030805 0.000000 -0.676573 -0.729807 0.098136
0.018344 -0.033302 0.000000 -0.676573 -0.729807 0.098136
0.016249 -0.030685 0.005019 -0.676573 -0.729807 0.098136
0.030762 -0.022049 0.000000 0.756346 -0.649908 -0.074559
0.031986 -0.020625 0.000000 0.756346 -0.649908 -0.074559
0.031360 -0.021928 0.005019 0.756346 -0.649908 -0.074559
0.004703 -0.020625 0.000000 -0.754230 -0.648090 0.105431
0.005927 -0.022049 0.000000 -0.754230 -0.648090 0.105431
0.005301 -0.020504 0.005019 -0.754230 -0.648090 0.105431
0.033743 -0.017626 0.000000 0.947202 -0.302739 -0.105630
0.034285 -0.015931 0.000000 0.947202 -0.302739 -0.105630
0.034341 -0.017505 0.005019 0.947202 -0.302739 -0.105630
0.017406 -0.006849 0.000000 0.745149 0.658643 -0.104602
0.016872 -0.006244 0.000000 0.745149 0.658643 -0.104602
0.017470 -0.006124 0.005019 0.745149 0.658643 -0.104602
0.010442 -0.003387 0.000000 -0.063692 0.997836 -0.016337
0.009268 -0.003462 0.000000 -0.063692 0.997836 -0.016337
0.009866 -0.003341 0.005019 -0.063692 0.997836 -0.016337
0.023821 -0.003739 0.000000 -0.331015 0.943475 0.016827
0.023069 -0.004003 0.000000 -0.331015 0.943475 0.016827
0.023667 -0.003883 0.005019 -0.331015 0.943475 0.016827
0.029303 -0.023502 0.000000 0.704212 -0.706824 -0.066980
0.030762 -0.022049 0.000000 0.704212 -0.706824 -0.066980
0.029902 -0.023382 0.005019 0.704212 -0.706824 -0.066980
0.034638 -0.010679 0.000000 0.974194 0.190743 -0.120680
0.034419 -0.009560 0.000000 0.974194 0.190743 -0.120680
0.035237 -0.010559 0.005019 0.974194 0.190743 -0.120680
0.002051 -0.010679 0.000000 -0.991161 0.063266 0.116611
0.001976 -0.011853 0.000000 -0.991161 0.063266 0.116611
0.002574 -0.011733 0.005019 -0.991161 0.063266 0.116611
0.032978 -0.019170 0.000000 0.891993 -0.441800 -0.095715
0.033743 -0.017626 0.000000 0.891993 -0.441800 -0.095715
0.033576 -0.019050 0.005019 0.891993 -0.441800 -0.095715
0.016872 -0.006244 0.000000 0.692351 0.714646 -0.099653
0.016296 -0.005686 0.000000 0.692351 0.714646 -0.099653
0.016894 -0.005566 0.005019 0.692351 0.714646 -0.099653
0.031986 -0.020625 0.000000 0.823074 -0.561594 -0.084629
0.032978 -0.019170 0.000000 0.823074 -0.561594 -0.084629
0.032584 -0.020504 0.005019 0.823074 -0.561594 -0.084629
0.002082 -0.014027 0.000000 -0.978796 -0.165553 0.120625
0.002404 -0.015931 0.000000 -0.978796 -0.165553 0.120625
0.003002 -0.015811 0.005019 -0.978796 -0.165553 0.120625
0.020393 -0.005686 0.000000 -0.694317 0.716676 0.065565
0.019817 -0.006244 0.000000 -0.694317 0.716676 0.065565
0.020416 -0.006124 0.005019 -0.694317 0.716676 0.065565
0.021008 -0.005179 0.000000 -0.634981 0.770407 0.057204
0.020393 -0.005686 0.000000 -0.634981 0.770407 0.057204
0.020991 -0.005566 0.005019 -0.634981 0.770407 0.057204
0.002946 -0.017626 0.000000 -0.889991 -0.440807 0.116641
0.003711 -0.019170 0.000000 -0.889991 -0.440807 0.116641
0.003544 -0.017505 0.005019 -0.889991 -0.440807 0.116641
0.034065 -0.008506 0.000000 0.891758 0.437188 -0.116765
0.033584 -0.007526 0.000000 0.891758 0.437188 -0.116765
0.034183 -0.007406 0.005019 0.891758 0.437188 -0.116765
0.024603 -0.003546 0.000000 -0.240145 0.970722 0.005344
0.023821 -0.003739 0.000000 -0.240145 0.970722 0.005344
0.024420 -0.003619 0.005019 -0.240145 0.970722 0.005344
0.018344 -0.033302 0.000000 0.678490 -0.731876 -0.063313
0.021038 -0.030805 0.000000 0.678490 -0.731876 -0.063313
0.018943 -0.033182 0.005019 0.678490 -0.731876 -0.063313
0.023069 -0.004003 0.000000 -0.416649 0.908640 0.027868
0.022348 -0.004334 0.000000 -0.416649 0.908640 0.027868
0.022946 -0.004214 0.005019 -0.416649 0.908640 0.027868
0.013620 -0.004003 0.000000 0.330426 0.941796 -0.061964
0.012868 -0.003739 0.000000 0.330426 0.941796 -0.061964
0.013466 -0.003619 0.005019 0.330426 0.941796 -0.061964
0.034419 -0.009560 0.000000 0.941067 0.316315 -0.119743
0.034065 -0.008506 0.000000 0.941067 0.316315 -0.119743
0.034663 -0.008386 0.005019 0.941067 0.316315 -0.119743
0.011024 -0.026736 0.000000 -0.652722 -0.751514 0.095813
0.013212 -0.028636 0.000000 -0.652722 -0.751514 0.095813
0.011623 -0.026616 0.005019 -0.652722 -0.751514 0.095813
0.023477 -0.028636 0.000000 0.654560 -0.753630 -0.059940
0.025665 -0.026736 0.000000 0.654560 -0.753630 -0.059940
0.024075 -0.028516 0.005019 0.654560 -0.753630 -0.059940
0.007095 -0.004035 0.000000 -0.439989 0.897471 0.030918
0.006115 -0.004516 0.000000 -0.439989 0.897471 0.030918
0.006713 -0.004395 0.005019 -0.439989 0.897471 0.030918
0.002270 -0.009560 0.000000 -0.975230 0.190945 0.111651
0.002051 -0.010679 0.000000 -0.975230 0.190945 0.111651
0.002649 -0.010559 0.005019 -0.975230 0.190945 0.111651
0.032986 -0.006628 0.000000 0.748005 0.655357 -0.104864
0.032279 -0.005821 0.000000 0.748005 0.655357 -0.104864
0.032877 -0.005700 0.005019 0.748005 0.655357 -0.104864
0.014341 -0.004334 0.000000 0.415750 0.906680 -0.071292
0.013620 -0.004003 0.000000 0.415750 0.906680 -0.071292
0.014218 -0.003883 0.005019 0.415750 0.906680 -0.071292
0.033584 -0.007526 0.000000 0.827044 0.550911 -0.111779
0.032986 -0.006628 0.000000 0.827044 0.550911 -0.111779
0.033584 -0.006507 0.005019 0.827044 0.550911 -0.111779
0.019817 -0.006244 0.000000 -0.747248 0.660499 0.073220
0.019283 -0.006849 0.000000 -0.747248 0.660499 0.073220
0.019881 -0.006729 0.005019 -0.747248 0.660499 0.073220
0.022348 -0.004334 0.000000 -0.496130 0.867402 0.038330
0.021661 -0.004727 0.000000 -0.496130 0.867402 0.038330
0.022259 -0.004607 0.005019 -0.496130 0.867402 0.038330
0.019283 -0.006849 0.000000 -0.794145 0.602413 0.080202
0.018791 -0.007497 0.000000 -0.794145 0.602413 0.080202
0.019389 -0.007377 0.005019 -0.794145 0.602413 0.080202
0.013212 -0.028636 0.000000 -0.661423 -0.743758 0.096664
0.015651 -0.030805 0.000000 -0.661423 -0.743758 0.096664
0.013810 -0.028516 0.005019 -0.661423 -0.743758 0.096664
0.032279 -0.005821 0.000000 0.655937 0.748669 -0.096129
0.031472 -0.005114 0.000000 0.655937 0.748669 -0.096129
0.032070 -0.004993 0.005019 0.655937 0.748669 -0.096129
0.030574 -0.004516 0.000000 0.439000 0.895452 -0.073793
0.029594 -0.004035 0.000000 0.439000 0.895452 -0.073793
0.030192 -0.003915 0.005019 0.439000 0.895452 -0.073793
0.003711 -0.019170 0.000000 -0.820907 -0.560116 0.111268
0.004703 -0.020625 0.000000 -0.820907 -0.560116 0.111268
0.004309 -0.019050 0.005019 -0.820907 -0.560116 0.111268
0.025412 -0.003427 0.000000 -0.145387 0.989354 -0.006397
0.024603 -0.003546 0.000000 -0.145387 0.989354 -0.006397
0.025201 -0.003426 0.005019 -0.145387 0.989354 -0.006397
0.009083 -0.025045 0.000000 -0.653982 -0.750403 0.095937
0.011024 -0.026736 0.000000 -0.653982 -0.750403 0.095937
0.009682 -0.024924 0.005019 -0.653982 -0.750403 0.095937
0.011277 -0.003427 0.000000 0.048453 0.998383 -0.029715
0.010442 -0.003387 0.000000 0.048453 0.998383 -0.029715
0.011040 -0.003266 0.005019 0.048453 0.998383 -0.029715
0.031472 -0.005114 0.000000 0.552346 0.829197 -0.085713
0.030574 -0.004516 0.000000 0.552346 0.829197 -0.085713
0.031172 -0.004395 0.005019 0.552346 0.829197 -0.085713
0.012868 -0.003739 0.000000 0.239826 0.969431 -0.051829
0.012086 -0.003546 0.000000 0.239826 0.969431 -0.051829
0.012684 -0.003426 0.005019 0.239826 0.969431 -0.051829
0.003104 -0.007526 0.000000 -0.893752 0.438166 0.096012
0.002624 -0.008506 0.000000 -0.893752 0.438166 0.096012
0.003222 -0.008386 0.005019 -0.893752 0.438166 0.096012
0.001976 -0.011853 0.000000 -0.991663 -0.048581 0.119353
0.002082 -0.014027 0.000000 -0.991663 -0.048581 0.119353
0.002680 -0.013907 0.005019 -0.991663 -0.048581 0.119353
0.034607 -0.014027 0.000000 0.991936 -0.048593 -0.117056
0.034713 -0.011853 0.000000 0.991936 -0.048593 -0.117056
0.035205 -0.013907 0.005019 0.991936 -0.048593 -0.117056
0.027421 -0.003462 0.000000 0.063669 0.997474 -0.031507
0.026247 -0.003387 0.000000 0.063669 0.997474 -0.031507
0.026845 -0.003266 0.005019 0.063669 0.997474 -0.031507
0.016296 -0.005686 0.000000 0.633213 0.768261 -0.093890
0.015681 -0.005179 0.000000 0.633213 0.768261 -0.093890
0.016279 -0.005059 0.005019 0.633213 0.768261 -0.093890
0.021661 -0.004727 0.000000 -0.568957 0.820958 0.048123
0.021008 -0.005179 0.000000 -0.568957 0.820958 0.048123
0.021606 -0.005059 0.005019 -0.568957 0.820958 0.048123
0.018344 -0.008184 0.000000 0.833249 0.541375 -0.112290
0.017898 -0.007497 0.000000 0.833249 0.541375 -0.112290
0.018496 -0.007377 0.005019 0.833249 0.541375 -0.112290
0.005927 -0.022049 0.000000 -0.702217 -0.704821 0.100593
0.007385 -0.023502 0.000000 -0.702217 -0.704821 0.100593
0.006525 -0.021928 0.005019 -0.702217 -0.704821 0.100593
0.034713 -0.011853 0.000000 0.990806 0.063242 -0.119603
0.034638 -0.010679 0.000000 0.990806 0.063242 -0.119603
0.035312 -0.011733 0.005019 0.990806 0.063242 -0.119603
0.027606 -0.025045 0.000000 0.671137 -0.738713 -0.062273
0.029303 -0.023502 0.000000 0.671137 -0.738713 -0.062273
0.028204 -0.024924 0.005019 0.671137 -0.738713 -0.062273
0.015028 -0.004727 0.000000 0.494914 0.865276 -0.079734
0.014341 -0.004334 0.000000 0.494914 0.865276 -0.079734
0.014939 -0.004214 0.005019 0.494914 0.865276 -0.079734
0.003703 -0.006628 0.000000 -0.829206 0.552352 0.085581
0.003104 -0.007526 0.000000 -0.829206 0.552352 0.085581
0.003703 -0.007406 0.005019 -0.829206 0.552352 0.085581
0.034285 -0.015931 0.000000 0.979704 -0.165707 -0.112790
0.034607 -0.014027 0.000000 0.979704 -0.165707 -0.112790
0.034883 -0.015811 0.005019 0.979704 -0.165707 -0.112790
0.029594 -0.004035 0.000000 0.318021 0.946146 -0.060590
0.028540 -0.003681 0.000000 0.318021 0.946146 -0.060590
0.029138 -0.003560 0.005019 0.318021 0.946146 -0.060590
0.009268 -0.003462 0.000000 -0.192147 0.981366 -0.000632
0.008149 -0.003681 0.000000 -0.192147 0.981366 -0.000632
0.008747 -0.003560 0.005019 -0.192147 0.981366 -0.000632
0.021038 -0.030805 0.000000 0.663291 -0.745858 -0.061167
0.023477 -0.028636 0.000000 0.663291 -0.745858 -0.061167
0.021636 -0.030685 0.005019 0.663291 -0.745858 -0.061167
0.025665 -0.026736 0.000000 0.655824 -0.752516 -0.060117
0.027606 -0.025045 0.000000 0.655824 -0.752516 -0.060117
0.026263 -0.026616 0.005019 0.655824 -0.752516 -0.060117
0.002624 -0.008506 0.000000 -0.942672 0.316853 0.104751
0.002270 -0.009560 0.000000 -0.942672 0.316853 0.104751
0.002868 -0.009440 0.005019 -0.942672 0.316853 0.104751
0.028540 -0.003681 0.000000 0.191940 0.980310 -0.046383
0.027421 -0.003462 0.000000 0.191940 0.980310 -0.046383
0.028019 -0.003341 0.005019 0.191940 0.980310 -0.046383
0.012086 -0.003546 0.000000 0.145268 0.988542 -0.041018
0.011277 -0.003427 0.000000 0.145268 0.988542 -0.041018
0.011875 -0.003307 0.005019 0.145268 0.988542 -0.041018
0.005815 -0.004993 0.005019 -0.657786 0.750779 0.060393
0.026845 -0.003266 0.005019 -0.048467 0.998659 -0.018171
0.016279 -0.005059 0.005019 0.567443 0.818775 -0.087263
0.015681 -0.005179 0.000000 0.567443 0.818775 -0.087263
0.015627 -0.004607 0.005019 0.567443 0.818775 -0.087263
0.009682 -0.024924 0.005019 -0.669243 -0.736629 0.097425
0.019389 -0.007377 0.005019 -0.835406 0.542776 0.086550
0.018791 -0.007497 0.000000 -0.835406 0.542776 0.086550
0.018943 -0.008064 0.005019 -0.835406 0.542776 0.086550
0.005008 -0.005700 0.005019 -0.750110 0.657200 0.073640
0.018496 -0.007377 0.005019 0.791981 0.600774 -0.108796
0.017898 -0.007497 0.000000 0.791981 0.600774 -0.108796
0.018005 -0.006729 0.005019 0.791981 0.600774 -0.108796
0.008747 -0.003560 0.005019 -0.318570 0.947777 0.015241
0.008149 -0.003681 0.000000 -0.318570 0.947777 0.015241
0.007693 -0.003915 0.005019 -0.318570 0.947777 0.015241
0.006713 -0.004395 0.005019 -0.553797 0.831376 0.046067
0.003544 -0.017505 0.005019 -0.945653 -0.302244 0.119952
0.018943 -0.033182 0.005019 -0.676573 -0.729807 0.098136
0.032584 -0.020504 0.005019 0.756346 -0.649908 -0.074559
0.006525 -0.021928 0.005019 -0.754230 -0.648090 0.105431
0.034883 -0.015811 0.005019 0.947202 -0.302739 -0.105630
0.018005 -0.006729 0.005019 0.745150 0.658642 -0.104602
0.017406 -0.006849 0.000000 0.745150 0.658642 -0.104602
0.017470 -0.006124 0.005019 0.745150 0.658642 -0.104602
0.011040 -0.003266 0.005019 -0.063692 0.997836 -0.016337
0.024420 -0.003619 0.005019 -0.331015 0.943475 0.016827
0.031360 -0.021928 0.005019 0.704212 -0.706824 -0.066980
0.035018 -0.009440 0.005019 0.974194 0.190743 -0.120680
0.002649 -0.010559 0.005019 -0.991161 0.063266 0.116611
0.034341 -0.017505 0.005019 0.891993 -0.441800 -0.095715
0.017470 -0.006124 0.005019 0.692351 0.714646 -0.099653
0.033576 -0.019050 0.005019 0.823074 -0.561594 -0.084629
0.002680 -0.013907 0.005019 -0.978796 -0.165553 0.120625
0.020991 -0.005566 0.005019 -0.694317 0.716676 0.065565
0.021606 -0.005059 0.005019 -0.634981 0.770407 0.057204
0.004309 -0.019050 0.005019 -0.889991 -0.440807 0.116641
0.034663 -0.008386 0.005019 0.891758 0.437188 -0.116765
0.025201 -0.003426 0.005019 -0.240145 0.970722 0.005344
0.021038 -0.030805 0.000000 0.678489 -0.731877 -0.063314
0.021636 -0.030685 0.005019 0.678489 -0.731877 -0.063314
0.018943 -0.033182 0.005019 0.678489 -0.731877 -0.063314
0.023667 -0.003883 0.005019 -0.416650 0.908640 0.027868
0.023069 -0.004003 0.000000 -0.416650 0.908640 0.027868
0.022946 -0.004214 0.005019 -0.416650 0.908640 0.027868
0.014218 -0.003883 0.005019 0.330426 0.941796 -0.061964
0.035018 -0.009440 0.005019 0.941067 0.316315 -0.119743
0.013810 -0.028516 0.005019 -0.652722 -0.751514 0.095813
0.026263 -0.026616 0.005019 0.654560 -0.753630 -0.059940
0.007693 -0.003915 0.005019 -0.439989 0.897471 0.030918
0.002868 -0.009440 0.005019 -0.975230 0.190945 0.111651
0.033584 -0.006507 0.005019 0.748005 0.655357 -0.104864
0.014939 -0.004214 0.005019 0.415751 0.906680 -0.071292
0.014341 -0.004334 0.000000 0.415751 0.906680 -0.071292
0.014218 -0.003883 0.005019 0.415751 0.906680 -0.071292
0.034183 -0.007406 0.005019 0.827044 0.550911 -0.111779
0.020416 -0.006124 0.005019 -0.747247 0.660500 0.073220
0.019817 -0.006244 0.000000 -0.747247 0.660500 0.073220
0.019881 -0.006729 0.005019 -0.747247 0.660500 0.073220
0.022946 -0.004214 0.005019 -0.496129 0.867403 0.038330
0.022348 -0.004334 0.000000 -0.496129 0.867403 0.038330
0.022259 -0.004607 0.005019 -0.496129 0.867403 0.038330
0.019881 -0.006729 0.005019 -0.794146 0.602412 0.080202
0.019283 -0.006849 0.000000 -0.794146 0.602412 0.080202
0.019389 -0.007377 0.005019 -0.794146 0.602412 0.080202
0.016249 -0.030685 0.005019 -0.661423 -0.743758 0.096664
0.032877 -0.005700 0.005019 0.655937 0.748669 -0.096129
0.031172 -0.004395 0.005019 0.439001 0.895451 -0.073793
0.030574 -0.004516 0.000000 0.439001 0.895451 -0.073793
0.030192 -0.003915 0.005019 0.439001 0.895451 -0.073793
0.005301 -0.020504 0.005019 -0.820907 -0.560116 0.111268
0.026010 -0.003307 0.005019 -0.145387 0.989354 -0.006397
0.011623 -0.026616 0.005019 -0.653982 -0.750403 0.095937
0.011875 -0.003307 0.005019 0.048453 0.998383 -0.029715
0.032070 -0.004993 0.005019 0.552345 0.829198 -0.085713
0.031472 -0.005114 0.000000 0.552345 0.829198 -0.085713
0.031172 -0.004395 0.005019 0.552345 0.829198 -0.085713
0.013466 -0.003619 0.005019 0.239826 0.969431 -0.051829
0.003703 -0.007406 0.005019 -0.893752 0.438166 0.096012
0.002574 -0.011733 0.005019 -0.991663 -0.048581 0.119353
0.035312 -0.011733 0.005019 0.991936 -0.048593 -0.117056
0.028019 -0.003341 0.005019 0.063669 0.997474 -0.031507
0.016894 -0.005566 0.005019 0.633213 0.768261 -0.093890
0.022259 -0.004607 0.005019 -0.568958 0.820957 0.048123
0.021661 -0.004727 0.000000 -0.568958 0.820957 0.048123
0.021606 -0.005059 0.005019 -0.568958 0.820957 0.048123
0.018943 -0.008064 0.005019 0.833250 0.541374 -0.112290
0.018344 -0.008184 0.000000 0.833250 0.541374 -0.112290
0.018496 -0.007377 0.005019 0.833250 0.541374 -0.112290
0.007984 -0.023382 0.005019 -0.702217 -0.704821 0.100593
0.035237 -0.010559 0.005019 0.990806 0.063242 -0.119603
0.029303 -0.023502 0.000000 0.671137 -0.738713 -0.062274
0.029902 -0.023382 0.005019 0.671137 -0.738713 -0.062274
0.028204 -0.024924 0.005019 0.671137 -0.738713 -0.062274
0.015627 -0.004607 0.005019 0.494914 0.865276 -0.079734
0.004301 -0.006507 0.005019 -0.829207 0.552352 0.085581
0.003703 -0.006628 0.000000 -0.829207 0.552352 0.085581
0.003703 -0.007406 0.005019 -0.829207 0.552352 0.085581
0.035205 -0.013907 0.005019 0.979704 -0.165707 -0.112790
0.030192 -0.003915 0.005019 0.318021 0.946146 -0.060590
0.009866 -0.003341 0.005019 -0.192147 0.981366 -0.000632
0.024075 -0.028516 0.005019 0.663291 -0.745858 -0.061167
0.028204 -0.024924 0.005019 0.655824 -0.752516 -0.060117
0.003222 -0.008386 0.005019 -0.942672 0.316853 0.104751
0.029138 -0.003560 0.005019 0.191940 0.980310 -0.046383
0.012684 -0.003426 0.005019 0.145268 0.988542 -0.041018
3 0 1 2
3 3 4 5
3 0 2 6
3 7 3 5
3 8 0 6
3 7 5 9
3 8 6 10
3 11 7 9
3 12 8 10
3 11 9 13
3 12 10 14
3 15 11 13
3 12 14 16
3 17 15 13
3 18 12 16
3 17 13 19
3 18 16 20
3 21 17 19
3 22 18 20
3 21 19 23
3 22 20 24
3 25 21 23
3 26 22 24
3 25 23 27
3 26 24 28
3 29 25 27
3 26 28 30
3 31 29 27
3 32 26 30
3 31 27 33
3 32 30 34
3 35 31 33
3 36 32 34
3 35 33 37
3 36 34 38
3 39 35 37
3 38 40 36
3 40 39 37
3 36 40 41
3 40 37 42
3 41 40 42
3 43 41 42
3 43 42 44
3 45 43 44
3 45 44 46
3 47 45 46
3 47 46 48
3 49 47 48
3 49 48 50
3 51 49 50
3 51 50 52
3 53 51 52
3 53 52 54
3 55 53 54
3 55 54 56
3 57 55 56
3 57 56 58
3 59 57 58
3 59 58 60
3 61 59 60
3 61 60 62
3 63 61 62
3 63 62 64
3 65 63 64
3 65 64 66
3 67 65 66
3 67 66 68
3 69 67 68
3 69 68 70
3 71 69 70
3 72 73 74
3 75 76 77
3 72 78 73
3 79 76 75
3 80 78 72
3 79 81 76
3 80 82 78
3 83 81 79
3 84 82 80
3 83 85 81
3 84 86 82
3 87 85 83
3 84 88 86
3 89 85 87
3 90 88 84
3 89 91 85
3 90 92 88
3 93 91 89
3 94 92 90
3 93 95 91
3 94 96 92
3 97 95 93
3 98 96 94
3 97 99 95
3 98 100 96
3 101 99 97
3 98 102 100
3 103 99 101
3 104 102 98
3 103 105 99
3 104 106 102
3 107 105 103
3 108 106 104
3 107 109 105
3 108 110 106
3 111 109 107
3 108 112 110
3 112 109 111
3 113 112 108
3 112 114 109
3 113 114 112
3 115 114 113
3 115 116 114
3 117 116 115
3 117 118 116
3 119 118 117
3 119 120 118
3 121 120 119
3 121 122 120
3 123 122 121
3 123 124 122
3 125 124 123
3 125 126 124
3 127 126 125
3 127 128 126
3 129 128 127
3 129 130 128
3 131 130 129
3 131 132 130
3 133 132 131
3 133 134 132
3 135 134 133
3 135 136 134
3 137 136 135
3 137 138 136
3 139 138 137
3 139 140 138
3 141 140 139
3 141 142 140
3 143 142 141
3 144 145 146
3 147 148 149
3 150 151 152
3 153 154 155
3 156 157 158
3 159 160 161
3 162 163 164
3 165 166 167
3 168 169 170
3 171 172 173
3 174 175 176
3 177 178 179
3 180 181 182
3 183 184 185
3 186 187 188
3 189 190 191
3 192 193 194
3 195 196 197
3 198 199 200
3 201 202 203
3 204 205 206
3 207 208 209
3 210 211 212
3 213 214 215
3 216 217 218
3 219 220 221
3 222 223 224
3 225 226 227
3 228 229 230
3 231 232 233
3 234 235 236
3 237 238 239
3 240 241 242
3 243 244 245
3 246 247 248
3 249 250 251
3 252 253 254
3 255 256 257
3 258 259 260
3 261 262 263
3 264 265 266
3 267 268 269
3 270 271 272
3 273 274 275
3 276 277 278
3 279 280 281
3 282 283 284
3 285 286 287
3 288 289 290
3 291 292 293
3 294 295 296
3 297 298 299
3 300 301 302
3 303 304 305
3 306 307 308
3 309 310 311
3 312 313 314
3 315 316 317
3 318 319 320
3 321 322 323
3 324 325 326
3 327 328 329
3 330 331 332
3 333 334 335
3 336 337 338
3 339 340 341
3 342 343 344
3 345 346 347
3 348 349 350
3 351 352 353
3 354 355 356
3 357 358 359
3 360 144 146
3 361 147 149
3 362 363 364
3 154 365 155
3 366 367 368
3 369 159 161
3 370 371 372
3 373 374 375
3 376 168 170
3 172 377 173
3 175 378 176
3 178 379 179
3 181 380 182
3 184 381 185
3 382 383 384
3 385 189 191
3 386 192 194
3 196 387 197
3 199 388 200
3 389 201 203
3 205 390 206
3 391 207 209
3 211 392 212
3 393 213 215
3 394 216 218
3 395 219 221
3 223 396 224
3 397 225 227
3 398 228 230
3 399 400 401
3 402 403 404
3 405 237 239
3 406 240 242
3 244 407 245
3 247 408 248
3 409 249 251
3 410 252 254
3 411 255 257
3 412 413 414
3 415 261 263
3 416 417 418
3 419 420 421
3 422 423 424
3 274 425 275
3 426 276 278
3 427 428 429
3 283 430 284
3 431 285 287
3 289 432 290
3 433 291 293
3 434 435 436
3 437 297 299
3 438 300 302
3 439 303 305
3 307 440 308
3 441 309 311
3 442 312 314
3 443 444 445
3 446 447 448
3 322 449 323
3 325 450 326
3 451 452 453
3 454 330 332
3 455 456 457
3 337 458 338
3 459 339 341
3 460 342 344
3 346 461 347
3 349 462 350
3 463 351 353
3 464 354 356
3 465 357 359
